<svg width="60" height="59" viewBox="0 0 60 59" fill="none" xmlns="http://www.w3.org/2000/svg">
<g style="mix-blend-mode:lighten">
<path opacity="0.6" d="M29.743 56.0069C25.8928 56.0069 22.0528 56.0663 18.2026 55.997C9.80682 55.8285 3.02368 49.2179 2.90274 40.9521C2.79187 33.2909 2.80195 25.6298 2.90274 17.9785C3.00352 9.5839 9.7665 2.92373 18.3739 2.77507C26.0642 2.64623 33.7645 2.63632 41.4547 2.76516C50.2436 2.91382 56.9159 9.51453 57.0469 18.1371C57.1578 25.6099 57.1578 33.0828 57.057 40.5458C56.936 49.4755 50.1428 55.9474 41.0012 55.997C37.2417 56.0168 33.4924 56.0069 29.743 56.0069Z" fill="url(#paint0_linear_19_54)"/>
<path d="M32.5953 37.9392C32.5953 40.4665 32.5651 42.9938 32.6155 45.5211C32.6356 46.314 32.3736 46.5023 31.6076 46.4824C29.8236 46.4329 28.0296 46.4329 26.2456 46.4824C25.5098 46.5023 25.3082 46.2941 25.3183 45.5706C25.3486 40.516 25.3082 35.4614 25.3586 30.4069C25.3687 29.505 25.0764 29.3266 24.2399 29.3464C21.9318 29.3959 21.9318 29.3563 21.9318 27.1065C21.9318 26.046 21.9519 24.9856 21.9217 23.9251C21.9016 23.4295 22.0729 23.2511 22.5567 23.3205C22.597 23.3304 22.6272 23.3205 22.6676 23.3205C23.5142 23.3007 24.6833 23.6079 25.1369 23.1718C25.7316 22.6069 25.3082 21.4473 25.3183 20.5553C25.3284 19.2669 25.3486 17.9884 25.7618 16.7594C26.6286 14.1727 28.4529 12.686 31.1843 12.3491C33.2605 12.1013 35.3469 12.2995 37.4332 12.2599C37.9674 12.25 38.0279 12.5076 38.0279 12.9338C38.0077 14.4304 37.9976 15.9368 38.038 17.4334C38.048 17.9884 37.8364 18.1173 37.3223 18.0974C36.3548 18.0677 35.3872 18.0677 34.4196 18.0974C33.0993 18.1272 32.6256 18.593 32.6054 19.9111C32.5953 21.0113 32.2022 22.4483 32.7566 23.1025C33.3311 23.7863 34.853 23.2908 35.9617 23.3007C38.0783 23.3304 38.0783 23.3106 37.8666 25.4018C37.7557 26.4623 37.6449 27.5129 37.5743 28.5733C37.534 29.1779 37.2921 29.3959 36.6773 29.3662C35.7097 29.3266 34.7321 29.4158 33.7746 29.3365C32.8675 29.2671 32.555 29.5149 32.5852 30.4564C32.6457 32.954 32.5953 35.4416 32.5953 37.9392Z" stroke="#EEEEEE" stroke-width="8" stroke-miterlimit="10"/>
<path d="M32.5953 38.0978C32.5953 40.6251 32.5651 43.1524 32.6155 45.6796C32.6356 46.4725 32.3736 46.6608 31.6076 46.641C29.8236 46.5915 28.0296 46.5915 26.2456 46.641C25.5098 46.6608 25.3082 46.4527 25.3183 45.7292C25.3486 40.6746 25.3082 35.62 25.3586 30.5654C25.3687 29.6635 25.0764 29.4851 24.2399 29.5049C21.9318 29.5545 21.9318 29.5149 21.9318 27.2651C21.9318 26.2046 21.9519 25.1441 21.9217 24.0836C21.9016 23.5881 22.0729 23.4097 22.5567 23.4791C22.597 23.489 22.6272 23.4791 22.6676 23.4791C23.5142 23.4593 24.6833 23.7665 25.1369 23.3304C25.7316 22.7655 25.3082 21.6059 25.3183 20.7139C25.3284 19.4255 25.3486 18.147 25.7618 16.918C26.6286 14.3313 28.4529 12.8446 31.1843 12.5076C33.2605 12.2599 35.3469 12.4581 37.4332 12.4184C37.9674 12.4085 38.0279 12.6662 38.0279 13.0924C38.0077 14.5889 37.9976 16.0954 38.038 17.592C38.048 18.147 37.8364 18.2758 37.3223 18.256C36.3548 18.2263 35.3872 18.2263 34.4196 18.256C33.0993 18.2857 32.6256 18.7515 32.6054 20.0697C32.5953 21.1698 32.2022 22.6069 32.7566 23.261C33.3311 23.9449 34.853 23.4493 35.9617 23.4593C38.0783 23.489 38.0783 23.4692 37.8666 25.5604C37.7557 26.6209 37.6449 27.6714 37.5743 28.7319C37.534 29.3365 37.2921 29.5545 36.6773 29.5248C35.7097 29.4851 34.7321 29.5743 33.7746 29.495C32.8675 29.4257 32.555 29.6734 32.5852 30.615C32.6457 33.1224 32.5953 35.6101 32.5953 38.0978Z" fill="url(#paint1_linear_19_54)"/>
</g>
<defs>
<linearGradient id="paint0_linear_19_54" x1="29.9773" y1="2.67334" x2="29.9773" y2="56.0306" gradientUnits="userSpaceOnUse">
<stop stop-color="#26CA99"/>
<stop offset="1" stop-color="#67FFD1"/>
</linearGradient>
<linearGradient id="paint1_linear_19_54" x1="29.9792" y1="12.3806" x2="29.9792" y2="46.6424" gradientUnits="userSpaceOnUse">
<stop stop-color="#26CA99"/>
<stop offset="1" stop-color="#67FFD1"/>
</linearGradient>
</defs>
</svg>
