<svg width="60" height="59" viewBox="0 0 60 59" fill="none" xmlns="http://www.w3.org/2000/svg">
<path opacity="0.6" d="M29.9042 45.6202C27.5659 45.6202 25.2175 45.6598 22.8792 45.6103C17.7692 45.5112 13.6368 41.4873 13.5663 36.4525C13.4957 31.7944 13.5058 27.1263 13.5663 22.4682C13.6267 17.364 17.749 13.3005 22.98 13.2113C27.6566 13.132 32.3434 13.132 37.0301 13.2113C42.382 13.3005 46.4438 17.3145 46.5244 22.5673C46.595 27.1164 46.595 31.6655 46.5244 36.2048C46.4539 41.636 42.3114 45.5805 36.7479 45.6103C34.47 45.6301 32.1922 45.6202 29.9042 45.6202Z" fill="url(#paint0_linear_19_43)"/>
<path opacity="0.6" d="M29.7934 56.106C25.9432 56.106 22.083 56.1654 18.2328 56.0961C9.81691 55.9375 3.0237 49.317 2.90275 41.0314C2.79188 33.3603 2.80196 25.6793 2.90275 18.0082C3.00354 9.59381 9.7766 2.92373 18.4042 2.77507C26.1045 2.64623 33.825 2.63632 41.5253 2.76516C50.3343 2.91382 57.0167 9.52444 57.1477 18.1668C57.2586 25.6496 57.2586 33.1324 57.1578 40.6151C57.0368 49.5647 50.2335 56.0366 41.0718 56.0961C37.3022 56.1159 33.5529 56.106 29.7934 56.106Z" fill="url(#paint1_linear_19_43)"/>
<path d="M48.0363 29.3959C48.0363 31.8836 47.9859 34.3811 48.0464 36.8688C48.1572 41.2693 45.3452 44.6687 41.7571 46.1851C40.3158 46.7897 38.804 47.1167 37.2417 47.1167C32.3534 47.1266 27.4551 47.1861 22.5567 47.0969C18.8678 47.0275 15.8441 45.5112 13.6671 42.528C12.5282 40.9521 11.9839 39.1681 11.9839 37.2355C11.9839 32.1115 11.9839 26.9975 11.9839 21.8735C11.9839 17.6911 14.0601 14.7673 17.7289 12.8644C19.3314 12.0418 21.065 11.6949 22.8792 11.685C27.6264 11.685 32.3736 11.6553 37.1208 11.6949C40.8097 11.7247 43.8838 13.1122 46.1515 16.026C47.4114 17.6514 48.0262 19.5246 48.0262 21.5861C48.0363 24.1728 48.0363 26.7893 48.0363 29.3959ZM14.675 29.3959C14.675 32.0223 14.675 34.6388 14.675 37.2553C14.675 38.4248 14.9471 39.5249 15.572 40.5259C17.1947 43.1325 19.6439 44.411 22.6776 44.4606C27.5559 44.53 32.4341 44.4903 37.3224 44.4705C38.5218 44.4705 39.6808 44.2227 40.7694 43.7173C43.7225 42.3297 45.3654 40.1196 45.3553 36.8093C45.325 31.7349 45.3452 26.6605 45.3452 21.5861C45.3452 20.149 44.932 18.8308 44.0652 17.6812C42.3921 15.4611 40.084 14.361 37.3224 14.3412C32.4542 14.2817 27.5861 14.3213 22.718 14.3312C21.6798 14.3312 20.6719 14.5394 19.7044 14.8962C17.0334 15.8774 14.5439 18.3551 14.6649 22.0023C14.7455 24.4603 14.675 26.9281 14.675 29.3959Z" fill="white"/>
<path d="M30.0555 36.9679C25.3687 36.9679 21.5891 33.291 21.5791 28.722C21.569 24.2224 25.3788 20.5355 30.0353 20.5355C34.7119 20.5256 38.5016 24.2125 38.5117 28.7517C38.5218 33.2711 34.7321 36.958 30.0555 36.9679ZM30.0555 34.3217C33.2505 34.3217 35.8307 31.8142 35.8307 28.722C35.8206 25.6595 33.2404 23.1619 30.0555 23.1619C26.8604 23.1619 24.2601 25.6595 24.2601 28.7319C24.2701 31.834 26.8705 34.3316 30.0555 34.3217Z" fill="white"/>
<path d="M39.4994 18.028C40.4771 18.028 41.2834 18.8507 41.2834 19.8616C41.2733 20.8725 40.467 21.6852 39.4893 21.6753C38.5218 21.6654 37.7255 20.8527 37.7255 19.8715C37.7154 18.8606 38.5218 18.028 39.4994 18.028Z" fill="white"/>
<path opacity="0.6" d="M29.9244 45.6202C27.5861 45.6202 25.2377 45.6598 22.8994 45.6103C17.7894 45.5112 13.657 41.4873 13.5864 36.4525C13.5159 31.7944 13.526 27.1263 13.5864 22.4682C13.6469 17.364 17.7692 13.3005 23.0002 13.2113C27.6768 13.132 32.3635 13.132 37.0503 13.2113C42.4022 13.3005 46.464 17.3145 46.5446 22.5673C46.6152 27.1164 46.6152 31.6655 46.5446 36.2048C46.4741 41.636 42.3316 45.5805 36.768 45.6103C34.4902 45.6301 32.2023 45.6202 29.9244 45.6202Z" fill="url(#paint2_linear_19_43)"/>
<path d="M30.0555 36.9679C25.3687 36.9679 21.5891 33.291 21.5791 28.722C21.569 24.2224 25.3788 20.5355 30.0353 20.5355C34.7119 20.5256 38.5016 24.2125 38.5117 28.7517C38.5218 33.2711 34.7321 36.958 30.0555 36.9679ZM30.0555 34.3217C33.2505 34.3217 35.8307 31.8142 35.8307 28.722C35.8206 25.6595 33.2404 23.1619 30.0555 23.1619C26.8604 23.1619 24.2601 25.6595 24.2601 28.7319C24.2701 31.834 26.8705 34.3316 30.0555 34.3217Z" fill="white"/>
<path d="M39.4994 18.028C40.4771 18.028 41.2834 18.8507 41.2834 19.8616C41.2733 20.8725 40.467 21.6852 39.4893 21.6753C38.5218 21.6654 37.7255 20.8527 37.7255 19.8715C37.7154 18.8606 38.5218 18.028 39.4994 18.028Z" fill="white"/>
<defs>
<linearGradient id="paint0_linear_19_43" x1="30.0472" y1="13.1519" x2="30.0472" y2="45.6352" gradientUnits="userSpaceOnUse">
<stop stop-color="#26CA99"/>
<stop offset="1" stop-color="#7BFFD7"/>
</linearGradient>
<linearGradient id="paint1_linear_19_43" x1="30.0277" y1="2.67334" x2="30.0277" y2="56.1297" gradientUnits="userSpaceOnUse">
<stop stop-color="#26CA99"/>
<stop offset="1" stop-color="#7BFFD7"/>
</linearGradient>
<linearGradient id="paint2_linear_19_43" x1="30.0674" y1="13.1519" x2="30.0674" y2="45.6352" gradientUnits="userSpaceOnUse">
<stop stop-color="#26CA99"/>
<stop offset="1" stop-color="#7BFFD7"/>
</linearGradient>
</defs>
</svg>
