<svg width="60" height="59" viewBox="0 0 60 59" fill="none" xmlns="http://www.w3.org/2000/svg">
<path opacity="0.6" d="M29.7934 56.106C25.9432 56.106 22.083 56.1654 18.2328 56.0961C9.8169 55.9375 3.02368 49.317 2.90274 41.0314C2.79187 33.3603 2.80195 25.6793 2.90274 18.0082C3.00352 9.59381 9.77659 2.92373 18.4042 2.77507C26.1045 2.64623 33.825 2.63632 41.5253 2.76516C50.3343 2.91382 57.0167 9.52444 57.1477 18.1668C57.2586 25.6496 57.2586 33.1324 57.1578 40.6151C57.0368 49.5647 50.2335 56.0366 41.0718 56.0961C37.3022 56.1159 33.5529 56.106 29.7934 56.106Z" fill="url(#paint0_linear_19_66)"/>
<path d="M48.9635 21.7447C48.9635 21.7447 48.5906 19.1083 47.4315 17.9488C45.96 16.4225 44.3171 16.4126 43.5612 16.3333C38.1589 15.9467 30.0453 15.9467 30.0453 15.9467H30.0252C30.0252 15.9467 21.9116 15.9467 16.5093 16.3333C15.7534 16.4225 14.1105 16.4324 12.639 17.9488C11.4799 19.1083 11.107 21.7447 11.107 21.7447C11.107 21.7447 10.724 24.8468 10.724 27.939V30.8429C10.724 33.9352 11.107 37.0373 11.107 37.0373C11.107 37.0373 11.4799 39.6736 12.639 40.8332C14.1105 42.3595 16.0356 42.3099 16.9024 42.4685C19.9966 42.7658 30.0353 42.855 30.0353 42.855C30.0353 42.855 38.1589 42.8451 43.5612 42.4586C44.3171 42.3694 45.96 42.3595 47.4315 40.8332C48.5906 39.6736 48.9635 37.0373 48.9635 37.0373C48.9635 37.0373 49.3465 33.9451 49.3465 30.8429V27.939C49.3465 24.8468 48.9635 21.7447 48.9635 21.7447Z" stroke="white" stroke-width="10.71" stroke-miterlimit="10"/>
<path d="M25.661 23.0628V34.847L37.1006 28.9797L25.661 23.0628Z" fill="white"/>
<path opacity="0.6" d="M48.9635 21.9231C48.9635 21.9231 48.5906 19.2867 47.4315 18.1271C45.96 16.6008 44.3171 16.5909 43.5612 16.5117C38.1589 16.1251 30.0453 16.1251 30.0453 16.1251H30.0252C30.0252 16.1251 21.9116 16.1251 16.5093 16.5117C15.7534 16.6009 14.1105 16.6108 12.639 18.1271C11.4799 19.2867 11.107 21.9231 11.107 21.9231C11.107 21.9231 10.724 25.0252 10.724 28.1174V31.0213C10.724 34.1136 11.107 37.2157 11.107 37.2157C11.107 37.2157 11.4799 39.852 12.639 41.0116C14.1105 42.5379 16.0356 42.4884 16.9024 42.6469C19.9966 42.9443 30.0353 43.0335 30.0353 43.0335C30.0353 43.0335 38.1589 43.0236 43.5612 42.637C44.3171 42.5478 45.96 42.5379 47.4315 41.0116C48.5906 39.852 48.9635 37.2157 48.9635 37.2157C48.9635 37.2157 49.3465 34.1235 49.3465 31.0213V28.1174C49.3465 25.0252 48.9635 21.9231 48.9635 21.9231Z" fill="url(#paint1_linear_19_66)"/>
<path d="M25.661 23.4097V35.184L37.1006 29.3167L25.661 23.4097Z" fill="white"/>
<defs>
<linearGradient id="paint0_linear_19_66" x1="30.0277" y1="2.67334" x2="30.0277" y2="56.1297" gradientUnits="userSpaceOnUse">
<stop stop-color="#26CA99"/>
<stop offset="1" stop-color="#68FFD2"/>
</linearGradient>
<linearGradient id="paint1_linear_19_66" x1="30.0353" y1="16.1251" x2="30.0353" y2="43.0335" gradientUnits="userSpaceOnUse">
<stop stop-color="#26CA99"/>
<stop offset="1" stop-color="#68FFD2"/>
</linearGradient>
</defs>
</svg>
